# xmcd CD database file
#
# Track frame offsets:
#	150
#	17518
#	38133
#	56066
#	74364
#	90790
#	108159
#	125796
#	142738
#	162348
#	179778
#	199474
#
# Disc length: 2892 seconds
#
# Revision: 0
# Processed by: cddbd v1.5.2PL0 Copyright (c) Steve Scherf et al.
# Submitted via: CDex 1.51
#
DISCID=a50b4a0c
DTITLE=Rubby - Dulce Veneno
DYEAR=2007
DGENRE=Salsa
TTITLE0=Hazme el amor
TTITLE1=Cría cuervos
TTITLE2=Dulce veneno
TTITLE3=El día que te vayas
TTITLE4=Tonto corazón
TTITLE5=Amada amante
TTITLE6=Valió la pena
TTITLE7=Dos soledades
TTITLE8=Mal querida
TTITLE9=Pecado mortal
TTITLE10=Así no te amarán jamás
TTITLE11=Valió la pena (bonus track)
EXTD=YEAR: 2007
EXTT0=
EXTT1=
EXTT2=
EXTT3=
EXTT4=
EXTT5=
EXTT6=
EXTT7=
EXTT8=
EXTT9=
EXTT10=
EXTT11=
PLAYORDER=
